# xmcd
#
# Track frame offsets:
#	183
#	18803
#	31553
#	42430
#	65005
#	82105
#	91630
#	104830
#	116305
#	130555
#	143380
#	154705
#	169555
#	182678
#	198430
#
# Disc length: 2786 seconds
#
# Revision: 6
# Processed by: cddbd v1.5.2PL0 Copyright (c) Steve Scherf et al.
# Submitted via: EasyCDDAExtractor 2010.6.0.0
#
DISCID=b10ae00f
DTITLE=Various Artist - Chicago The Blues Today! Vol. 1
DYEAR=1966
DGENRE=Blues
TTITLE0=The Junior Wells Chicago Blue Band - Help Me (A Tribute to Sonny Boy W
TTITLE0=illiamson)
TTITLE1=The Junior Wells Chicago Blue Band - It Hurts Me Too (When Things Go W
TTITLE1=rong)
TTITLE2=The Junior Wells Chicago Blue Band - Messin' With The Kid
TTITLE3=The Junior Wells Chicago Blue Band - Vietcong Blues
TTITLE4=The Junior Wells Chicago Blue Band - All Night Long
TTITLE5=J.B. Hutto And His Hawks - Going Ahead
TTITLE6=J.B. Hutto And His Hawks - Please Help
TTITLE7=J.B. Hutto And His Hawks - Too Much Alcohol
TTITLE8=J.B. Hutto And His Hawks - Married Woman Blues
TTITLE9=J.B. Hutto And His Hawks - That's The Truth
TTITLE10=Otis Spann's South Side Piano - Marie
TTITLE11=Otis Spann's South Side Piano - Burning Fire
TTITLE12=Otis Spann's South Side Piano - S.P. Blues
TTITLE13=Otis Spann's South Side Piano - Sometime I Wonder
TTITLE14=Otis Spann's South Side Piano - Spann's Stomp
EXTD=
EXTT0=
EXTT1=
EXTT2=
EXTT3=
EXTT4=
EXTT5=
EXTT6=
EXTT7=
EXTT8=
EXTT9=
EXTT10=
EXTT11=
EXTT12=
EXTT13=
EXTT14=
PLAYORDER=
